<svg id="svg" xmlns="http://www.w3.org/2000/svg" xmlns:xlink="http://www.w3.org/1999/xlink" width="400" height="400" viewBox="0, 0, 400,400">
    <g id="svg2"><path id="path0" d="M174.824 1.197 C 9.823 23.695,-58.712 223.417,58.193 341.082 C 175.486 459.139,377.115 390.120,398.829 224.481 C 415.552 96.905,302.123 -16.160,174.824 1.197 M212.500 48.793 C 288.350 52.660,351.563 121.393,351.563 200.000 C 351.563 312.576,232.814 386.092,132.354 335.709 C 27.171 282.958,19.178 136.689,117.969 72.460 C 141.925 56.885,178.956 46.175,201.953 48.172 C 203.242 48.284,207.988 48.563,212.500 48.793 M183.984 71.585 C 116.814 81.591,71.533 133.301,71.533 200.000 C 71.533 273.494,126.535 328.499,200.000 328.474 C 273.505 328.448,328.467 273.483,328.467 200.000 C 328.467 137.260,288.026 87.066,226.426 73.353 C 219.334 71.774,190.716 70.582,183.984 71.585 M204.699 96.289 C 209.836 98.893,211.132 101.727,211.557 111.292 L 211.911 119.250 217.471 120.555 C 240.217 125.893,257.813 144.636,257.813 163.526 C 257.813 179.767,237.567 180.245,235.491 164.054 C 234.248 154.356,225.244 145.649,213.477 142.765 L 211.719 142.334 211.719 165.926 L 211.719 189.518 217.375 190.845 C 271.498 203.547,270.460 266.846,215.920 279.638 L 211.919 280.577 211.563 288.572 C 211.052 300.058,207.730 304.688,200.000 304.688 C 192.270 304.688,188.948 300.058,188.437 288.572 L 188.081 280.577 184.080 279.638 C 160.030 273.997,142.188 255.565,142.188 236.361 C 142.187 220.248,162.377 219.340,164.447 235.360 C 165.575 244.089,170.112 249.656,179.937 254.364 C 189.044 258.728,188.281 260.619,188.281 233.672 L 188.281 210.312 184.180 209.350 C 129.682 196.560,128.383 133.367,182.356 120.642 L 188.087 119.291 188.442 111.312 C 188.917 100.629,193.117 94.531,200.000 94.531 C 200.677 94.531,202.792 95.322,204.699 96.289 M183.984 143.654 C 159.929 152.337,157.815 173.449,179.937 184.052 C 189.025 188.407,188.281 190.152,188.281 164.453 C 188.281 152.207,188.193 142.200,188.086 142.216 C 187.979 142.231,186.133 142.878,183.984 143.654 M211.719 234.839 C 211.719 260.455,210.977 258.718,220.063 254.364 C 242.789 243.473,238.935 219.317,213.477 213.077 L 211.719 212.646 211.719 234.839 " stroke="none" fill="#000000" fill-rule="evenodd"></path></g>
</svg>